<svg xmlns="http://www.w3.org/2000/svg" viewBox="0 0 113.32 93.94"><defs><style>.cls-1{fill:#333;}</style></defs><title>资源 1</title><g id="图层_2" data-name="图层 2"><g id="图层_1-2" data-name="图层 1"><path class="cls-1" d="M103.85,57.15a6.25,6.25,0,1,1,6.44,10.71,7,7,0,0,1-.82.41l-50,25a6.25,6.25,0,0,1-5.62,0l-50-25A6.25,6.25,0,0,1,9.47,57.15L56.66,80.71Zm0-56.25a6.25,6.25,0,1,1,6.44,10.71,7,7,0,0,1-.82.41l-50,25a6.25,6.25,0,0,1-5.62,0l-50-25A6.25,6.25,0,0,1,8.65.48,5.75,5.75,0,0,1,9.47.9L56.66,24.46Z"/></g></g></svg>