<svg xmlns="http://www.w3.org/2000/svg" viewBox="0 0 130 54.46"><defs><style>.cls-1{fill:#ffcb9e;}.cls-1,.cls-2,.cls-3{stroke:#333;stroke-miterlimit:10;}.cls-2{fill:#fff;}.cls-3{fill:none;}</style></defs><title>资源 12</title><g id="图层_2" data-name="图层 2"><g id="图层_1-2" data-name="图层 1"><rect class="cls-1" x="0.5" y="0.5" width="129" height="53.46" rx="5" ry="5"/><circle class="cls-2" cx="19.39" cy="20.28" r="1.89"/><circle class="cls-2" cx="32.61" cy="20.28" r="1.89"/><circle class="cls-2" cx="19.39" cy="27.24" r="1.89"/><circle class="cls-2" cx="32.61" cy="27.24" r="1.89"/><circle class="cls-2" cx="19.39" cy="34.21" r="1.89"/><circle class="cls-2" cx="32.61" cy="34.21" r="1.89"/><line class="cls-3" x1="21.28" y1="20.28" x2="30.72" y2="20.28"/><line class="cls-3" x1="30.72" y1="27.12" x2="21.28" y2="20.28"/><line class="cls-3" x1="30.72" y1="34.21" x2="21.28" y2="20.28"/><line class="cls-3" x1="21.28" y1="27.12" x2="30.72" y2="20.28"/><line class="cls-3" x1="30.72" y1="27.12" x2="21.28" y2="27.12"/><line class="cls-3" x1="30.72" y1="34.21" x2="21.28" y2="34.21"/><line class="cls-3" x1="21.28" y1="27.12" x2="30.72" y2="34.21"/><line class="cls-3" x1="21.28" y1="34.21" x2="30.72" y2="20.28"/><line class="cls-3" x1="30.72" y1="27.12" x2="21.28" y2="34.21"/></g></g></svg>