<svg xmlns="http://www.w3.org/2000/svg" viewBox="0 0 18 14.31"><defs><style>.cls-1{fill:#333;}</style></defs><title>资源 15</title><g id="图层_2" data-name="图层 2"><g id="图层_1-2" data-name="图层 1"><path class="cls-1" d="M11.77,6.93a.69.69,0,0,1-.49-.21l-5-5L1.18,6.72a.68.68,0,0,1-1,0h0a.69.69,0,0,1,0-1L5.74.2a.69.69,0,0,1,1,0h0l5.05,5.05,5.05-5a.68.68,0,0,1,1,0h0a.69.69,0,0,1,0,1L12.26,6.75a.72.72,0,0,1-.49.18Z"/><path class="cls-1" d="M11.77,14.31a.7.7,0,0,1-.49-.2l-5-5-5.05,5a.68.68,0,0,1-1,0h0a.69.69,0,0,1,0-1L5.74,7.56a.69.69,0,0,1,1,0h0l5.05,5.08,5.05-5.05a.68.68,0,0,1,1,0h0a.69.69,0,0,1,0,1l-5.54,5.54a.7.7,0,0,1-.49.2Z"/></g></g></svg>