<svg xmlns="http://www.w3.org/2000/svg" viewBox="0 0 18 16.71"><defs><style>.cls-1{fill:#333;}</style></defs><title>资源 14</title><g id="图层_2" data-name="图层 2"><g id="图层_1-2" data-name="图层 1"><path class="cls-1" d="M16,2.82,13.7.55A2,2,0,0,0,11,.55L.48,11.05a1.28,1.28,0,0,0-.35.87L0,15.25v.09a1.32,1.32,0,0,0,.42.9,1.21,1.21,0,0,0,.86.32h.07l3.26-.13A1.17,1.17,0,0,0,5.44,16L15.94,5.55a1.89,1.89,0,0,0,0-2.73ZM1,15.59l.1-2.77L3.7,15.45Zm4-.77L1.7,11.53l8.72-8.72,3.3,3.29ZM15.35,4.47l-.7.7-3.3-3.29.7-.7a.65.65,0,0,1,.94,0l2.36,2.36a.64.64,0,0,1,0,.93Zm2,10.91h-10a.66.66,0,0,0-.67.66.67.67,0,0,0,.67.67h10A.67.67,0,0,0,18,16,.66.66,0,0,0,17.33,15.38ZM8.22,14.26a.67.67,0,0,0,.67.67h8.44a.67.67,0,0,0,0-1.34H8.89A.67.67,0,0,0,8.22,14.26Z"/></g></g></svg>