<svg xmlns="http://www.w3.org/2000/svg" viewBox="0 0 93.94 113.32"><defs><style>.cls-1{fill:#fff;}</style></defs><title>资源 4</title><g id="图层_2" data-name="图层 2"><g id="图层_1-2" data-name="图层 1"><path class="cls-1" d="M36.79,103.85a6.25,6.25,0,1,1-10.71,6.44,5.7,5.7,0,0,1-.41-.82l-25-50a6.25,6.25,0,0,1,0-5.62l25-50A6.25,6.25,0,0,1,36.79,9.47L13.23,56.66Zm56.25,0a6.25,6.25,0,1,1-10.71,6.44,5.7,5.7,0,0,1-.41-.82l-25-50a6.25,6.25,0,0,1,0-5.62l25-50a6.25,6.25,0,1,1,11.54,4.8,5.75,5.75,0,0,1-.42.82L69.48,56.66Z"/></g></g></svg>