<svg xmlns="http://www.w3.org/2000/svg" viewBox="0 0 18 17.93"><defs><style>.cls-1{fill:#333;}</style></defs><title>资源 17</title><g id="图层_2" data-name="图层 2"><g id="图层_1-2" data-name="图层 1"><path class="cls-1" d="M17.16,8.75a2.95,2.95,0,0,0-5,2,2.62,2.62,0,0,0,.45,1.59L9,16.12a2.21,2.21,0,0,1-3.18,0,2.2,2.2,0,0,1,0-3.18L13,5.81A3.43,3.43,0,0,0,13,.93,3.65,3.65,0,0,0,8.1.93L4.48,4.56A2.77,2.77,0,0,0,.85,4.9,2.88,2.88,0,0,0,.85,9a2.87,2.87,0,0,0,2,.9,2.87,2.87,0,0,0,2-.9,2.78,2.78,0,0,0,.34-3.63L8.78,1.84a2.18,2.18,0,0,1,3.17,0A2.18,2.18,0,0,1,12,5L4.81,12.15a3.29,3.29,0,0,0-1,2.38,3.11,3.11,0,0,0,1,2.38,3.27,3.27,0,0,0,2.38,1,3.07,3.07,0,0,0,2.38-1l3.86-3.74a2.57,2.57,0,0,0,1.58.45,3.29,3.29,0,0,0,2-.79A2.77,2.77,0,0,0,17.16,8.75Zm-13-.56a1.79,1.79,0,0,1-2.5,0,1.83,1.83,0,0,1-.56-1.25,1.83,1.83,0,0,1,.56-1.25,1.83,1.83,0,0,1,1.25-.56,1.83,1.83,0,0,1,1.25.56,1.71,1.71,0,0,1,.45,1.25A1.71,1.71,0,0,1,4.14,8.19ZM16.37,12a1.77,1.77,0,0,1-2.49,0,1.84,1.84,0,0,1-.57-1.25,1.77,1.77,0,0,1,3.06-1.25,1.61,1.61,0,0,1,0,2.5Z"/></g></g></svg>