<svg xmlns="http://www.w3.org/2000/svg" viewBox="0 0 93.94 113.32"><defs><style>.cls-1{fill:#fff;}</style></defs><title>资源 2</title><g id="图层_2" data-name="图层 2"><g id="图层_1-2" data-name="图层 1"><path class="cls-1" d="M57.15,9.47A6.25,6.25,0,0,1,67.86,3a7.84,7.84,0,0,1,.41.82l25,50a6.25,6.25,0,0,1,0,5.62l-25,50a6.25,6.25,0,0,1-11.12-5.62L80.71,56.66ZM.9,9.47A6.25,6.25,0,0,1,11.61,3a7.84,7.84,0,0,1,.41.82l25,50a6.25,6.25,0,0,1,0,5.62l-25,50a6.25,6.25,0,0,1-11.54-4.8,6.34,6.34,0,0,1,.42-.82L24.46,56.66Z"/></g></g></svg>